<?xml version="1.0" encoding="UTF-8" standalone="no"?>
<!-- Created with Inkscape (http://www.inkscape.org/) -->

<svg
   xmlns:dc="http://purl.org/dc/elements/1.1/"
   xmlns:cc="http://creativecommons.org/ns#"
   xmlns:rdf="http://www.w3.org/1999/02/22-rdf-syntax-ns#"
   xmlns:svg="http://www.w3.org/2000/svg"
   xmlns="http://www.w3.org/2000/svg"
   xmlns:sodipodi="http://sodipodi.sourceforge.net/DTD/sodipodi-0.dtd"
   xmlns:inkscape="http://www.inkscape.org/namespaces/inkscape"
   width="297mm"
   height="210mm"
   viewBox="0 0 1052.3622 744.09448"
   id="svg2"
   version="1.1"
   inkscape:version="0.91 r"
   sodipodi:docname="libreflix-logo.svg">
  <defs
     id="defs4">
    <inkscape:perspective
       sodipodi:type="inkscape:persp3d"
       inkscape:vp_x="0 : 526.18109 : 1"
       inkscape:vp_y="0 : 999.99998 : 0"
       inkscape:vp_z="744.0945 : 526.18109 : 1"
       inkscape:persp3d-origin="372.04724 : 350.78739 : 1"
       id="perspective4193" />
  </defs>
  <sodipodi:namedview
     id="base"
     pagecolor="#ffffff"
     bordercolor="#666666"
     borderopacity="1.0"
     inkscape:pageopacity="0.0"
     inkscape:pageshadow="2"
     inkscape:zoom="0.7"
     inkscape:cx="269.11567"
     inkscape:cy="471.07278"
     inkscape:document-units="px"
     inkscape:current-layer="layer1"
     showgrid="false"
     inkscape:window-width="1920"
     inkscape:window-height="1024"
     inkscape:window-x="0"
     inkscape:window-y="28"
     inkscape:window-maximized="1"
     showguides="true"
     inkscape:guide-bbox="true">
    <sodipodi:guide
       position="269.28571,523.03572"
       orientation="1,0"
       id="guide4162" />
    <sodipodi:guide
       position="277.14286,521.51787"
       orientation="0,1"
       id="guide4164" />
    <sodipodi:guide
       position="333.39286,539.82144"
       orientation="0,1"
       id="guide4178" />
    <sodipodi:guide
       position="320.89286,503.92858"
       orientation="0,1"
       id="guide4180" />
    <sodipodi:guide
       position="288.39286,524.77679"
       orientation="0,1"
       id="guide4298" />
    <sodipodi:guide
       position="280.58036,538.21429"
       orientation="0,1"
       id="guide4300" />
    <sodipodi:guide
       position="290.40179,535.89287"
       orientation="0,1"
       id="guide4302" />
  </sodipodi:namedview>
  <metadata
     id="metadata7">
    <rdf:RDF>
      <cc:Work
         rdf:about="">
        <dc:format>image/svg+xml</dc:format>
        <dc:type
           rdf:resource="http://purl.org/dc/dcmitype/StillImage" />
        <dc:title></dc:title>
      </cc:Work>
    </rdf:RDF>
  </metadata>
  <g
     inkscape:label="Layer 1"
     inkscape:groupmode="layer"
     id="layer1"
     transform="translate(0,-308.26772)">
    <g
       style="font-style:normal;font-weight:normal;font-size:40px;line-height:125%;font-family:sans-serif;letter-spacing:0px;word-spacing:0px;fill:#00222b;fill-opacity:1;stroke:none;stroke-width:1px;stroke-linecap:butt;stroke-linejoin:miter;stroke-opacity:1"
       id="text4136"
       transform="matrix(6.1441843,0,0,6.1441843,-1773.6013,-2608.6356)">
      <path
         d="m 309.42152,548.80115 -14.63068,0 0,-35.59659 5.36931,0 0,30.25568 9.26137,0 0,5.34091 z"
         style="fill:#00222b"
         id="path4174"
         inkscape:connector-curvature="0" />
      <path
         d="m 318.51953,548.80115 -5.36932,0 0,-35.59659 5.36932,0 0,35.59659 z"
         style="fill:#00222b"
         id="path4176"
         inkscape:connector-curvature="0" />
      <path
         d="m 323.30646,548.80115 0,-35.625 8.03977,0 q 3.18182,0 5.73864,1.67613 2.1875,1.42046 3.125,4.40341 0.51136,1.59091 0.51136,3.77841 0,3.57955 -1.90341,5.73864 -0.79545,0.90909 -1.875,1.39204 1.78978,0.68182 3.03978,2.69887 0.82386,1.36363 1.22159,3.52272 0.19886,1.10796 0.19886,2.4716 0,3.38068 -1.27841,5.73863 -0.99432,1.84659 -2.8125,2.95455 -2.04545,1.25 -4.0625,1.25 l -9.94318,0 z m 5.79545,-5.3125 2.24432,0 q 2.72728,0 3.77841,-2.8125 0.36932,-0.96591 0.36932,-2.21591 0,-2.98296 -1.13636,-4.34659 -1.02273,-1.25 -3.01137,-1.25 l -2.24432,0 0,10.625 z m 0,-15.76705 2.24432,0 q 2.5,0 3.35228,-2.44318 0.3125,-0.90909 0.3125,-2.24432 0,-2.21591 -1.07955,-3.35227 -0.99432,-1.05114 -2.58523,-1.05114 l -2.24432,0 0,9.09091 z"
         style="fill:#00222b"
         id="path4178"
         inkscape:connector-curvature="0" />
      <path
         d="m 354.50674,513.20456 q 4.48864,0 6.59091,2.47159 1.84659,2.15909 1.84659,6.02272 l 0,5.17046 q 0,3.77841 -2.86931,6.39204 l 3.97727,15.53978 -5.79546,0 -3.26704,-13.4375 q -0.22727,0.0284 -0.48296,0.0284 l -3.09659,0 0,13.40909 -5.36931,0 0,-35.59659 8.4659,0 z m 3.21023,8.57954 q 0,-3.09659 -3.06818,-3.09659 l -3.23864,0 0,11.39205 3.23864,0 q 1.27841,0 2.15909,-0.90909 0.90909,-0.9091 0.90909,-2.1875 l 0,-5.19887 z"
         style="fill:#00222b"
         id="path4180"
         inkscape:connector-curvature="0" />
      <path
         d="m 368.69709,548.80115 0,-35.625 15.28409,0 0,5.36932 -9.91478,0 0,9.74431 7.24432,0 0,5.39773 -7.24432,0 0,9.74432 9.91478,0 0,5.36932 -15.28409,0 z"
         style="fill:#00222b"
         id="path4182"
         inkscape:connector-curvature="0" />
      <path
         d="m 393.05078,548.80115 -5.36932,0 0,-35.625 15.28409,0 0,5.36932 -9.91477,0 0,9.74431 7.24432,0 0,5.39773 -7.24432,0 0,15.11364 z"
         style="font-style:normal;font-variant:normal;font-weight:normal;font-stretch:normal;font-size:40px;line-height:125%;font-family:Bebas;-inkscape-font-specification:'Bebas, Normal';text-align:start;writing-mode:lr-tb;text-anchor:start;fill:#00222b"
         id="path4184"
         inkscape:connector-curvature="0" />
      <path
         d="m 421.29652,548.80115 -14.63068,0 0,-35.59659 5.36931,0 0,30.25568 9.26137,0 0,5.34091 z"
         style="font-style:normal;font-variant:normal;font-weight:normal;font-stretch:normal;font-size:40px;line-height:125%;font-family:Bebas;-inkscape-font-specification:'Bebas, Normal';text-align:start;writing-mode:lr-tb;text-anchor:start;fill:#00222b"
         id="path4186"
         inkscape:connector-curvature="0" />
      <path
         d="m 430.39453,548.80115 -5.36932,0 0,-35.59659 5.36932,0 0,35.59659 z"
         style="font-style:normal;font-variant:normal;font-weight:normal;font-stretch:normal;font-size:40px;line-height:125%;font-family:Bebas;-inkscape-font-specification:'Bebas, Normal';text-align:start;writing-mode:lr-tb;text-anchor:start;fill:#00222b"
         id="path4188"
         inkscape:connector-curvature="0" />
      <path
         d="m 454.6701,548.80115 -5.76705,0 -4.11932,-11.30682 -4.14772,11.30682 -5.76705,0 6.98864,-17.89773 -6.98864,-17.69886 5.9375,0 3.97727,10.99431 3.94887,-10.99431 5.9375,0 -6.98864,17.69886 6.98864,17.89773 z"
         style="font-style:normal;font-variant:normal;font-weight:normal;font-stretch:normal;font-size:40px;line-height:125%;font-family:Bebas;-inkscape-font-specification:'Bebas, Normal';text-align:start;writing-mode:lr-tb;text-anchor:start;fill:#00222b"
         id="path4190"
         inkscape:connector-curvature="0" />
    </g>
    <g
       style="font-style:normal;font-weight:normal;font-size:40px;line-height:125%;font-family:sans-serif;letter-spacing:0px;word-spacing:0px;fill:#37abc8;fill-opacity:1;stroke:none;stroke-width:1px;stroke-linecap:butt;stroke-linejoin:miter;stroke-opacity:1"
       id="text4136-6"
       transform="matrix(6.1441843,0,0,6.1441843,-1773.6013,-2608.6356)">
      <path
         d="m 309.50098,548.28296 -14.63068,0 0,-35.59659 5.36932,0 0,30.25568 9.26136,0 0,5.34091 z"
         style="font-style:normal;font-variant:normal;font-weight:normal;font-stretch:normal;font-size:40px;line-height:125%;font-family:Bebas;-inkscape-font-specification:'Bebas, Normal';text-align:start;writing-mode:lr-tb;text-anchor:start;fill:#37abc8;fill-opacity:1"
         id="path4155"
         inkscape:connector-curvature="0" />
      <path
         d="m 318.599,548.28296 -5.36932,0 0,-35.59659 5.36932,0 0,35.59659 z"
         style="font-style:normal;font-variant:normal;font-weight:normal;font-stretch:normal;font-size:40px;line-height:125%;font-family:Bebas;-inkscape-font-specification:'Bebas, Normal';text-align:start;writing-mode:lr-tb;text-anchor:start;fill:#37abc8;fill-opacity:1"
         id="path4157"
         inkscape:connector-curvature="0" />
      <path
         d="m 323.38593,548.28296 0,-35.625 8.03977,0 q 3.18182,0 5.73864,1.67614 2.1875,1.42045 3.125,4.4034 0.51136,1.59091 0.51136,3.77841 0,3.57955 -1.90341,5.73864 -0.79545,0.90909 -1.875,1.39205 1.78977,0.68181 3.03977,2.69886 0.82387,1.36364 1.2216,3.52273 0.19886,1.10795 0.19886,2.47159 0,3.38068 -1.27841,5.73863 -0.99432,1.84659 -2.8125,2.95455 -2.04545,1.25 -4.0625,1.25 l -9.94318,0 z m 5.79545,-5.3125 2.24432,0 q 2.72727,0 3.77841,-2.8125 0.36932,-0.96591 0.36932,-2.21591 0,-2.98295 -1.13637,-4.34659 -1.02272,-1.25 -3.01136,-1.25 l -2.24432,0 0,10.625 z m 0,-15.76705 2.24432,0 q 2.5,0 3.35227,-2.44318 0.3125,-0.90909 0.3125,-2.24432 0,-2.21591 -1.07954,-3.35227 -0.99432,-1.05114 -2.58523,-1.05114 l -2.24432,0 0,9.09091 z"
         style="font-style:normal;font-variant:normal;font-weight:normal;font-stretch:normal;font-size:40px;line-height:125%;font-family:Bebas;-inkscape-font-specification:'Bebas, Normal';text-align:start;writing-mode:lr-tb;text-anchor:start;fill:#37abc8;fill-opacity:1"
         id="path4159"
         inkscape:connector-curvature="0" />
      <path
         d="m 354.58621,512.68637 q 4.48864,0 6.59091,2.47159 1.84659,2.15909 1.84659,6.02273 l 0,5.17045 q 0,3.77841 -2.86932,6.39205 l 3.97728,15.53977 -5.79546,0 -3.26704,-13.4375 q -0.22728,0.0284 -0.48296,0.0284 l -3.09659,0 0,13.40909 -5.36932,0 0,-35.59659 8.46591,0 z m 3.21023,8.57954 q 0,-3.09659 -3.06818,-3.09659 l -3.23864,0 0,11.39205 3.23864,0 q 1.27841,0 2.15909,-0.90909 0.90909,-0.90909 0.90909,-2.1875 l 0,-5.19887 z"
         style="font-style:normal;font-variant:normal;font-weight:normal;font-stretch:normal;font-size:40px;line-height:125%;font-family:Bebas;-inkscape-font-specification:'Bebas, Normal';text-align:start;writing-mode:lr-tb;text-anchor:start;fill:#37abc8;fill-opacity:1"
         id="path4161"
         inkscape:connector-curvature="0" />
      <path
         d="m 368.77655,548.28296 0,-35.625 15.28409,0 0,5.36932 -9.91477,0 0,9.74432 7.24432,0 0,5.39772 -7.24432,0 0,9.74432 9.91477,0 0,5.36932 -15.28409,0 z"
         style="font-style:normal;font-variant:normal;font-weight:normal;font-stretch:normal;font-size:40px;line-height:125%;font-family:Bebas;-inkscape-font-specification:'Bebas, Normal';text-align:start;writing-mode:lr-tb;text-anchor:start;fill:#37abc8;fill-opacity:1"
         id="path4163"
         inkscape:connector-curvature="0" />
      <path
         d="m 393.13025,548.28296 -5.36932,0 0,-35.625 15.28409,0 0,5.36932 -9.91477,0 0,9.74432 7.24431,0 0,5.39772 -7.24431,0 0,15.11364 z"
         style="font-style:normal;font-variant:normal;font-weight:normal;font-stretch:normal;font-size:40px;line-height:125%;font-family:Bebas;-inkscape-font-specification:'Bebas, Normal';text-align:start;writing-mode:lr-tb;text-anchor:start;fill:#37abc8;fill-opacity:1"
         id="path4165"
         inkscape:connector-curvature="0" />
      <path
         d="m 421.37598,548.28296 -14.63068,0 0,-35.59659 5.36932,0 0,30.25568 9.26136,0 0,5.34091 z"
         style="font-style:normal;font-variant:normal;font-weight:normal;font-stretch:normal;font-size:40px;line-height:125%;font-family:Bebas;-inkscape-font-specification:'Bebas, Normal';text-align:start;writing-mode:lr-tb;text-anchor:start;fill:#37abc8;fill-opacity:1"
         id="path4167"
         inkscape:connector-curvature="0" />
      <path
         d="m 430.474,548.28296 -5.36932,0 0,-35.59659 5.36932,0 0,35.59659 z"
         style="font-style:normal;font-variant:normal;font-weight:normal;font-stretch:normal;font-size:40px;line-height:125%;font-family:Bebas;-inkscape-font-specification:'Bebas, Normal';text-align:start;writing-mode:lr-tb;text-anchor:start;fill:#37abc8;fill-opacity:1"
         id="path4169"
         inkscape:connector-curvature="0" />
      <path
         d="m 454.74956,548.28296 -5.76704,0 -4.11932,-11.30682 -4.14773,11.30682 -5.76704,0 6.98863,-17.89773 -6.98863,-17.69886 5.9375,0 3.97727,10.99432 3.94886,-10.99432 5.9375,0 -6.98863,17.69886 6.98863,17.89773 z"
         style="font-style:normal;font-variant:normal;font-weight:normal;font-stretch:normal;font-size:40px;line-height:125%;font-family:Bebas;-inkscape-font-specification:'Bebas, Normal';text-align:start;writing-mode:lr-tb;text-anchor:start;fill:#37abc8;fill-opacity:1"
         id="path4171"
         inkscape:connector-curvature="0" />
    </g>
  </g>
</svg>
