<?xml version="1.0" encoding="UTF-8" standalone="no"?>
<svg
   xmlns:dc="http://purl.org/dc/elements/1.1/"
   xmlns:cc="http://creativecommons.org/ns#"
   xmlns:rdf="http://www.w3.org/1999/02/22-rdf-syntax-ns#"
   xmlns:svg="http://www.w3.org/2000/svg"
   xmlns="http://www.w3.org/2000/svg"
   viewBox="0 0 687.875 218.7375"
   height="218.7375"
   width="687.875"
   xml:space="preserve"
   version="1.1"
   id="svg2"><metadata
     id="metadata8"><rdf:RDF><cc:Work
         rdf:about=""><dc:format>image/svg+xml</dc:format><dc:type
           rdf:resource="http://purl.org/dc/dcmitype/StillImage" /></cc:Work></rdf:RDF></metadata><defs
     id="defs6"><clipPath
       id="clipPath26"
       clipPathUnits="userSpaceOnUse"><path
         id="path28"
         d="M 2384.88,198.43 C 2384.88,88.8398 2296.04,0 2186.46,0 L 198.422,0 C 88.8398,0 0,88.8398 0,198.43 L 0,1541.5 c 0,109.58 88.8398,198.42 198.422,198.42 l 1988.038,0 c 109.58,0 198.42,-88.84 198.42,-198.42 l 0,-1343.07 z" /></clipPath><clipPath
       id="clipPath38"
       clipPathUnits="userSpaceOnUse"><path
         id="path40"
         d="M 2384.88,198.43 C 2384.88,88.8398 2296.04,0 2186.46,0 L 198.422,0 C 88.8398,0 0,88.8398 0,198.43 L 0,1541.5 c 0,109.58 88.8398,198.42 198.422,198.42 l 1988.038,0 c 109.58,0 198.42,-88.84 198.42,-198.42 l 0,-1343.07 z" /></clipPath><clipPath
       id="clipPath44"
       clipPathUnits="userSpaceOnUse"><path
         id="path46"
         d="m 389.004,1518.02 1700.056,0 0,-2030.032 -1700.056,0 0,2030.032 z" /></clipPath></defs><g
     transform="matrix(1.25,0,0,-1.25,0,218.7375)"
     id="g10"><g
       transform="scale(0.1,0.1)"
       id="g12"><path
         id="path14"
         style="fill:#100f0d;fill-opacity:1;fill-rule:nonzero;stroke:none"
         d="M 5503.03,199.371 C 5503.03,89.7813 5414.2,0.929688 5304.61,0.929688 l -5071.176,0 C 123.844,0.929688 35.0039,89.7813 35.0039,199.371 l 0,1352.109 c 0,109.59 88.8401,198.43 198.4301,198.43 l 5071.176,0 c 109.59,0 198.42,-88.84 198.42,-198.43 l 0,-1352.109" /><g
         transform="scale(10,10)"
         id="g16"><text
           id="text18"
           style="font-variant:normal;font-weight:normal;font-size:75px;font-family:Arial;-inkscape-font-specification:ArialMT;writing-mode:lr-tb;fill:#ffffff;fill-opacity:1;fill-rule:nonzero;stroke:none"
           transform="matrix(1,0,0,-1,255.228,37.4949)"><tspan
             id="tspan20"
             y="0"
             x="0 50.025002 91.724998 133.425 158.39999 200.10001 216.75">Android</tspan></text>
</g><g
         id="g22"><g
           clip-path="url(#clipPath26)"
           id="g24"><path
             id="path30"
             style="fill:#9fc732;fill-opacity:1;fill-rule:nonzero;stroke:none"
             d="m 1750.92,847.742 -1025.315,0 c -22.789,0 -41.273,-18.496 -41.273,-41.277 l 0,-859.8244 c 0,-22.8125 18.484,-41.3125 41.273,-41.3125 l 182.793,0 0,-289.7381 c 0,-67.25 54.516,-121.762 121.732,-121.762 67.24,0 121.74,54.512 121.74,121.762 l 0,289.7381 170.27,0 0,-289.7381 c 0,-67.25 54.51,-121.762 121.73,-121.762 67.24,0 121.73,54.512 121.73,121.762 l 0,289.7381 185.32,0 c 22.83,0 41.31,18.5 41.31,41.3125 l 0,859.8244 c 0,22.781 -18.48,41.277 -41.31,41.277 l 0,0" /><path
             id="path32"
             style="fill:#9fc732;fill-opacity:1;fill-rule:nonzero;stroke:none"
             d="m 510.738,847.957 c -67.222,0 -121.734,-54.512 -121.734,-121.738 l 0,-494.469 c 0,-67.211 54.488,-121.711 121.734,-121.711 67.215,0 121.727,54.5 121.727,121.711 l 0,494.469 c 0,67.226 -54.512,121.738 -121.727,121.738 l 0,0" /></g></g><g
         id="g34"><g
           clip-path="url(#clipPath38)"
           id="g36"><g
             clip-path="url(#clipPath44)"
             id="g42"><path
               id="path48"
               style="fill:#9fc732;fill-opacity:1;fill-rule:nonzero;stroke:none"
               d="m 1965.82,847.957 c -67.25,0 -121.74,-54.512 -121.74,-121.738 l 0,-494.469 c 0,-67.211 54.49,-121.711 121.74,-121.711 67.22,0 121.73,54.5 121.73,121.711 l 0,494.469 c 0,67.226 -54.51,121.738 -121.73,121.738 l 0,0" /><path
               id="path50"
               style="fill:#9fc732;fill-opacity:1;fill-rule:nonzero;stroke:none"
               d="m 983.574,1186.16 c 25.846,0 46.796,-20.95 46.796,-46.8 0,-25.84 -20.95,-46.79 -46.796,-46.79 -25.824,0 -46.797,20.95 -46.797,46.79 0,25.85 20.95,46.8 46.797,46.8 l 0,0 z m 553.746,-46.8 c 0,-25.84 -20.93,-46.79 -46.77,-46.79 -25.85,0 -46.8,20.95 -46.8,46.79 0,25.85 20.95,46.8 46.8,46.8 25.84,0 46.77,-20.95 46.77,-46.8 l 0,0 z m -803.402,-231.305 1006.302,0 c 26.23,0 45.82,24.179 40.41,49.883 -33.27,158.632 -134.26,292.332 -271.33,369.572 l 86.02,155.19 c 5.83,10.51 2.03,23.77 -8.48,29.57 -10.54,5.86 -23.74,2.03 -29.57,-8.47 l -86.67,-156.37 c -71,32.93 -150.11,51.33 -233.52,51.33 -83.45,0 -162.56,-18.4 -233.54,-51.33 l -86.688,156.39 c -5.829,10.51 -19.059,14.28 -29.571,8.47 -10.508,-5.82 -14.301,-19.06 -8.48,-29.56 l 86.023,-155.22 c -137.047,-77.24 -238.07,-210.94 -271.347,-369.572 -5.395,-25.704 14.191,-49.883 40.441,-49.883 l 0,0" /></g></g></g><g
         transform="scale(10,10)"
         id="g52"><text
           id="text54"
           style="font-variant:normal;font-weight:normal;font-size:35px;font-family:Arial;-inkscape-font-specification:ArialMT;writing-mode:lr-tb;fill:#ffffff;fill-opacity:1;fill-rule:nonzero;stroke:none"
           transform="matrix(1,0,0,-1,255.113,110.995)"><tspan
             id="tspan56"
             y="0"
             x="0 25.27 44.73 70 89.459999 97.230003 116.69 136.14999 155.61 165.34048 175.103 194.56349">Download for</tspan></text>
</g></g></g></svg>